first trial
nRows=23
nColumns=38

# SIMM Motion File Header:
name Sujet_02_velo_80.mvnx
datacolumns 38
datarows 23
otherdata 1
range 3.9330 4.2990
endheader
time pelvis_tilt  pelvis_list  pelvis_rotation  pelvis_tx  pelvis_ty  pelvis_tz  hip_flexion_r  hip_adduction_r  hip_rotation_r  knee_angle_r  ankle_angle_r  subtalar_angle_r  mtp_angle_r  hip_flexion_l  hip_adduction_l  hip_rotation_l  knee_angle_l  ankle_angle_l  subtalar_angle_l  mtp_angle_l  lumbar_extension  lumbar_bending  lumbar_rotation  arm_flex_r  arm_add_r  arm_rot_r  elbow_flex_r  pro_sup_r  wrist_flex_r  wrist_dev_r  arm_flex_l  arm_add_l  arm_rot_l  elbow_flex_l  pro_sup_l  wrist_flex_l  wrist_dev_l
3.9330	3.2301	-0.8799	-89.3485	-1.7773	4.1381	5.1203	47.9166	-9.1394	-3.4272	95.2816	4.4384	-1.1361	-0.0000	51.5346	0.4217	-4.7932	63.2806	-10.2600	-9.3946	0.0000	-26.4286	4.0306	1.6470	84.1290	-16.0138	48.0396	7.4744	93.5513	-16.0502	-5.2138	91.2383	3.9899	34.2080	-2.0379	89.5958	-7.7617	3.1026	
3.9490	3.1283	-0.9110	-89.4493	-1.7811	4.1554	5.1376	51.0305	-9.7963	-3.1120	99.8221	4.1986	-0.4297	-0.0000	48.4516	-0.1409	-5.5918	58.8799	-10.3273	-8.7313	-0.0000	-26.3442	4.0780	1.6775	84.4142	-15.8947	48.0184	7.4181	93.7690	-16.0839	-5.1007	91.3663	3.9033	33.7798	-2.1299	89.8074	-7.6294	3.0825	
3.9660	3.0305	-0.9766	-89.5137	-1.7847	4.1736	5.1544	54.4658	-10.3954	-3.0890	104.3795	4.4181	-0.0987	-0.0000	45.2315	-0.7659	-6.4158	54.5874	-10.7081	-8.0649	-0.0000	-26.2781	4.1770	1.6861	84.6072	-15.8346	48.0731	7.3941	93.9217	-16.1503	-4.9561	91.3881	3.7971	33.3654	-2.0897	89.9788	-7.4807	3.1396	
3.9830	2.9314	-1.0468	-89.5570	-1.7882	4.1921	5.1709	57.9516	-10.9424	-3.2468	108.5311	4.7807	-0.0169	-0.0000	41.9590	-1.3906	-7.2589	50.5174	-11.3361	-7.4595	-0.0000	-26.2146	4.2998	1.6772	84.7663	-15.7941	48.1483	7.4000	94.0594	-16.2287	-4.7841	91.3470	3.6775	32.9627	-1.9782	90.1227	-7.3359	3.2206	
3.9990	2.8237	-1.0581	-89.5870	-1.7918	4.2094	5.1881	60.5459	-11.2671	-3.3537	110.7588	4.6853	-0.1428	-0.0000	39.1132	-1.8464	-7.9932	47.2798	-12.1093	-7.0998	0.0000	-26.1077	4.3895	1.6547	84.9403	-15.7204	48.1306	7.4671	94.2413	-16.2812	-4.6022	91.2747	3.5739	32.6730	-1.9091	90.1571	-7.2498	3.2306	
4.0160	2.6948	-0.9760	-89.5856	-1.7958	4.2245	5.2062	61.7191	-11.2526	-3.3931	109.9945	3.6715	-0.4666	-0.0000	36.8330	-2.0711	-8.5717	45.0106	-13.0956	-7.0903	0.0000	-25.9102	4.4239	1.6120	85.1773	-15.5822	47.9463	7.6314	94.5079	-16.2894	-4.4075	91.1603	3.4942	32.5914	-1.9528	90.0111	-7.2696	3.0827	
4.0330	2.5575	-0.8348	-89.5705	-1.7999	4.2383	5.2249	61.9970	-11.0045	-3.4101	107.3194	2.1979	-0.9985	0.0000	34.9863	-2.1597	-9.0005	43.5568	-14.2301	-7.3140	0.0000	-25.6690	4.4246	1.5561	85.4297	-15.4115	47.6681	7.8551	94.8173	-16.2728	-4.2037	91.0160	3.4298	32.6233	-2.0379	89.7562	-7.3498	2.8617	
4.0490	2.4415	-0.6753	-89.6021	-1.8042	4.2526	5.2438	62.0212	-10.6617	-3.2777	104.4439	1.0419	-1.7297	0.0000	33.6492	-2.1970	-9.2193	43.0917	-15.2132	-7.6270	-0.0000	-25.4799	4.4005	1.5106	85.6027	-15.2506	47.4027	8.0593	95.1064	-16.2503	-4.0179	90.9072	3.3842	32.5846	-2.0654	89.5233	-7.4049	2.7317	
4.0660	2.3479	-0.4865	-89.7082	-1.8088	4.2678	5.2627	61.9253	-10.2427	-2.8442	101.8221	0.3635	-2.7773	0.0000	32.9051	-2.1956	-9.1533	43.7983	-15.9211	-8.0328	-0.0000	-25.3830	4.3441	1.4763	85.6465	-15.1114	47.1844	8.2005	95.3725	-16.2277	-3.8698	90.8616	3.3776	32.3489	-1.9717	89.3762	-7.4003	2.7872	
4.0830	2.2751	-0.2794	-89.8611	-1.8136	4.2835	5.2818	61.5699	-9.7359	-2.2578	98.9885	0.0110	-4.0382	-0.0000	32.6726	-2.1604	-8.8780	45.4984	-16.4832	-8.5405	0.0000	-25.3382	4.2633	1.4520	85.6114	-14.9821	46.9794	8.3241	95.6195	-16.1989	-3.7394	90.8506	3.3893	32.0423	-1.8213	89.2501	-7.3687	2.9347	
4.0990	2.2499	-0.1261	89.9610	-1.8182	4.2995	5.3005	61.1925	-9.2258	-1.8453	96.2831	0.2957	-5.1906	-0.0000	32.7780	-2.1599	-8.5677	47.8294	-16.9789	-9.0289	-0.0000	-25.3206	4.1898	1.4578	85.5534	-14.8682	46.7931	8.4870	95.7958	-16.1642	-3.5930	90.8546	3.3610	31.8596	-1.7067	89.0828	-7.3256	3.0567	
4.1160	2.2989	-0.0735	89.7427	-1.8223	4.3160	5.3184	60.9436	-8.6849	-1.7369	93.9687	1.6489	-6.2161	0.0000	33.1932	-2.2491	-8.2181	50.8069	-17.4304	-9.5000	0.0000	-25.3299	4.1333	1.5203	85.4799	-14.7695	46.5920	8.7545	95.8665	-16.1140	-3.3914	90.8605	3.2637	31.9141	-1.6651	88.8071	-7.2512	3.1324	
4.1330	2.3960	-0.0739	89.4993	-1.8264	4.3329	5.3359	60.6789	-8.1348	-1.8031	91.7960	3.6341	-7.1540	-0.0000	33.9455	-2.3694	-7.8305	54.4196	-17.8166	-9.9576	-0.0000	-25.3664	4.0840	1.6128	85.3837	-14.6854	46.4099	9.0616	95.8678	-16.0587	-3.1745	90.8829	3.1260	32.0923	-1.6593	88.4907	-7.1661	3.1820	
4.1490	2.4891	-0.0587	89.2974	-1.8306	4.3499	5.3534	60.1992	-7.7252	-1.9814	89.3447	5.2522	-7.7358	-0.0000	34.9447	-2.4214	-7.5901	58.2637	-18.1450	-10.2802	-0.0000	-25.4070	4.0442	1.6756	85.2995	-14.6219	46.3530	9.2689	95.8535	-16.0275	-3.0269	90.9444	2.9751	32.2487	-1.6692	88.2754	-7.1477	3.1486	
4.1660	2.5571	0.0059	89.1451	-1.8353	4.3669	5.3709	59.4389	-7.5636	-2.2846	86.4722	6.1265	-7.6586	0.0000	36.1788	-2.3512	-7.7253	62.2600	-18.4209	-10.3775	0.0000	-25.4467	4.0137	1.6858	85.2384	-14.5855	46.5455	9.3148	95.8137	-16.0573	-3.0103	91.0578	2.7981	32.3194	-1.6909	88.1861	-7.1936	3.0542	
4.1830	2.6209	0.0860	89.0344	-1.8402	4.3841	5.3885	58.4637	-7.5375	-2.7013	83.3171	6.6448	-7.1868	0.0000	37.6609	-2.2272	-8.0147	66.4949	-18.6314	-10.3487	0.0000	-25.4905	3.9927	1.6663	85.1882	-14.5701	46.8626	9.2608	95.7568	-16.1093	-3.0620	91.2102	2.6081	32.3687	-1.7279	88.1982	-7.3077	2.8754	
4.1990	2.6916	0.1482	89.0075	-1.8449	4.4014	5.4057	57.2717	-7.4673	-3.1291	79.8817	6.9428	-6.8941	0.0000	39.3363	-2.1187	-7.9733	70.8079	-18.7566	-10.3491	0.0000	-25.5296	3.9834	1.6263	85.1486	-14.5631	47.0371	9.1514	95.7630	-16.0973	-3.0800	91.3855	2.4725	32.4431	-1.7704	88.3799	-7.5780	2.4862	
4.2160	2.7632	0.1783	89.0892	-1.8494	4.4187	5.4226	55.8740	-7.2746	-3.5696	76.2001	7.1674	-7.0469	0.0000	41.2152	-2.0181	-7.3720	75.2198	-18.7649	-10.4435	-0.0000	-25.5596	3.9946	1.5651	85.1023	-14.5455	46.9457	8.9610	95.8858	-15.9576	-3.0106	91.5933	2.4377	32.5449	-1.8318	88.8343	-8.1281	1.7055	
4.2330	2.8422	0.1904	89.2550	-1.8537	4.4362	5.4392	54.2633	-7.0284	-4.0199	72.2401	7.1601	-7.3871	-0.0000	43.2861	-1.8829	-6.4457	79.6942	-18.6902	-10.5580	0.0000	-25.5850	4.0176	1.4834	85.0675	-14.5369	46.7119	8.7166	96.0712	-15.7537	-2.9066	91.8240	2.4578	32.6714	-1.8989	89.4582	-8.8406	0.7104	
4.2490	2.9570	0.1949	89.4722	-1.8578	4.4537	5.4554	52.4102	-6.7754	-4.3693	67.9083	6.5880	-7.7064	0.0000	45.4601	-1.7171	-5.4017	83.9802	-18.6139	-10.6286	0.0000	-25.6101	4.0292	1.3930	85.0963	-14.5836	46.4385	8.5399	96.2379	-15.5915	-2.8281	92.0325	2.4626	32.8628	-1.9218	90.0102	-9.4361	-0.0840	
4.2660	3.1324	0.1687	89.7636	-1.8615	4.4713	5.4708	50.3212	-6.5423	-4.5378	62.8344	5.0994	-7.9627	-0.0000	47.7281	-1.5459	-4.2043	88.0552	-18.5435	-10.6080	0.0000	-25.6318	4.0367	1.2882	85.1927	-14.7187	46.1443	8.4878	96.3697	-15.5125	-2.8021	92.1920	2.4233	33.2083	-1.8943	90.3590	-9.8039	-0.5080	
4.2830	3.3436	0.1340	-89.8932	-1.8649	4.4888	5.4858	47.9873	-6.3046	-4.6101	57.3900	3.0455	-8.1860	0.0000	50.1000	-1.3134	-2.8978	91.9411	-18.4705	-10.5365	0.0000	-25.6536	4.0325	1.1748	85.3511	-14.9085	45.8100	8.5019	96.4832	-15.4756	-2.8021	92.3284	2.3691	33.6195	-1.8226	90.6365	-10.0470	-0.7256	
4.2990	3.5467	0.1690	-89.6006	-1.8687	4.5063	5.5012	45.3554	-6.0379	-4.7209	52.5923	1.1548	-8.2883	0.0000	52.5130	-0.9479	-1.8100	95.4618	-18.4534	-10.4736	-0.0000	-25.6903	3.9711	1.0815	85.6086	-15.0998	45.4817	8.5297	96.5476	-15.4629	-2.8081	92.4774	2.3164	33.8702	-1.6745	90.9962	-10.2019	-0.8198	
